# xmcd
#
# Track frame offsets:
#	150
#	24210
#	42455
#	60437
#	76590
#	91490
#	108950
#	125520
#	145470
#	160945
#
# Disc length: 2348 seconds
#
# Revision: 23
# Processed by: cddbd v1.5.2PL0 Copyright (c) Steve Scherf et al.
# Submitted via: EZCDAudioConverter 6.0.3.1
#
DISCID=77092a0a
DTITLE=Charlie Daniels - Super Hits
DYEAR=1994
DGENRE=Country
TTITLE0=Uneasy Rider
TTITLE1=Long Haired Country Boy
TTITLE2=The South's Gonna Do It Again
TTITLE3=The Devil Went Down to Georgia
TTITLE4=In America
TTITLE5=Still In Saigon
TTITLE6=Drinkin' My Baby Goodbye
TTITLE7=Uneasy Rider '88
TTITLE8=Boogie Woogie Fiddle Country Blues
TTITLE9=Simple Man
EXTD=
EXTT0=
EXTT1=
EXTT2=
EXTT3=
EXTT4=
EXTT5=
EXTT6=
EXTT7=
EXTT8=
EXTT9=
PLAYORDER=
